<svg xmlns="http://www.w3.org/2000/svg" viewBox="0 0 100 20">
  <path fill="#0077c2" d="M10 10 L12 6 L14 10 L18 10 L15 13 L16 17 L10 14 L4 17 L5 13 L2 10 L6 10 L8 6 Z" />
  <path fill="#0077c2" d="M28 10 L30 6 L32 10 L36 10 L33 13 L34 17 L28 14 L22 17 L23 13 L20 10 L24 10 L26 6 Z" />
  <path fill="#0077c2" d="M46 10 L48 6 L50 10 L54 10 L51 13 L52 17 L46 14 L40 17 L41 13 L38 10 L42 10 L44 6 Z" />
  <path fill="#0077c2" d="M64 10 L66 6 L68 10 L72 10 L69 13 L70 17 L64 14 L58 17 L59 13 L56 10 L60 10 L62 6 Z" />
  <path fill="#0077c2" d="M82 10 L84 6 L86 10 L90 10 L87 13 L88 17 L82 14 L76 17 L77 13 L74 10 L78 10 L80 6 Z" />
</svg>
